<svg xmlns="http://www.w3.org/2000/svg" viewBox="0 0 1163.65 1167.23"><defs><style>.cls-1{fill:#3d3d3d;opacity:0.11;}</style></defs><g id="Layer_2" data-name="Layer 2"><g id="Layer_2-2" data-name="Layer 2"><g id="ElectronShell_2"><path class="cls-1" d="M1152.82,587.28c0,30.63-.49,61.32-4,91.78-3.36,28.79-9.55,57.08-20.21,84.08-10,25.38-23.2,49.38-36.91,72.92-6.85,11.75-13.77,23.48-20.85,35.09a420.14,420.14,0,0,1-34.54,48.61c-18.93,23-40,44.12-61.24,64.89s-43,41.7-66.55,60.23a379.44,379.44,0,0,1-36.53,25.68c-12,7.34-24.42,13.91-36.64,20.79-28,15.79-56.23,31.68-86.63,42.49a325.28,325.28,0,0,1-42.18,11.47q-24.51,5.19-49.4,8.25-25.35,3.14-50.9,4.14c-15.25.61-30.69,1-45.92-.24-23-1.92-45.57-7.81-67.65-14.45-11.06-3.33-22-6.92-33.05-10.41q-10.95-3.51-22-6.78Q424,1122,410.34,1118a540.93,540.93,0,0,1-92-37.36c-13.81-7.17-27.15-15.12-40.49-23.1-7.87-4.71-15.75-9.39-23.57-14.16-23.29-14.22-46.28-29.15-67-47a337.64,337.64,0,0,1-30.84-30.74,542.81,542.81,0,0,1-41.2-52.43c-9.56-13.76-18.54-27.93-27-42.38a357.27,357.27,0,0,1-20.1-38.63C57.36,807.4,49.83,781.36,43,755.28c-3.52-13.32-6.84-26.7-10.23-40.07C29.07,700.84,25.4,686.47,22.17,672,14.53,637.79,9,602.85,9.82,567.7c1.28-54.39,19.75-106.36,34-158.31,7.22-26.44,14.14-53,23.9-78.69A307.05,307.05,0,0,1,84.22,294a286,286,0,0,1,30.17-44.49c17-20.95,36.33-39.92,55.66-58.71,22.39-21.77,44.53-43.86,68.49-63.93A475,475,0,0,1,278,97c12.64-8.53,25.86-15.9,39.09-23.44,22-12.55,43.42-26.12,66-37.59,22-11.15,45.12-20.59,69.53-24.62,22.37-3.69,45.22-3.13,67.78-2,11.73.58,23.44,1.41,35.16,2.06,11.91.66,23.79,1,35.72,1.24,16.94.31,33.79.92,50.66,2.59a536.51,536.51,0,0,1,64.74,10.48c14.44,3.24,28.61,7.35,42.9,11.14,15.23,4,30.61,7.47,45.89,11.28,26.08,6.51,52.29,13.93,76.07,26.76,13.12,7.09,25.67,15.46,38,23.77a622.28,622.28,0,0,1,54.28,40.76c12.77,10.79,25.4,22.11,36.8,34.35a226.74,226.74,0,0,1,27.21,36.4c14.19,23.15,25.48,47.91,38,71.94,5.94,11.37,12.33,22.47,18.64,33.65,9.86,17.45,19.5,35.05,28,53.19a420.7,420.7,0,0,1,17.17,41.58c6.87,19.8,11.67,40.23,15.41,60.84q4.42,24.42,6.66,49.16c2.06,22.46,2.52,44.9,2.42,67.44,0,.85,1.17-.9,1.06-.73.5-.74,1.59-2.06,1.59-3,0-17.05-.26-34-1.44-51q-1.74-25-5.61-49.86c-4.92-31.29-12.31-62.1-24-91.56-11.16-28-25.5-54.59-40.32-80.81-6.31-11.17-12.68-22.28-18.67-33.62-7.33-13.89-14.28-28-21.66-41.84-10.86-20.39-22.53-40.69-37.64-58.28-9.82-11.44-21-21.8-32.27-31.8-12.75-11.33-26.08-22-39.8-32.15s-27.86-19.67-42.28-28.78c-11.21-7.08-22.4-13.92-34.48-19.43-24.84-11.33-51.48-17.92-77.93-24.25-11.52-2.76-23.05-5.46-34.52-8.41-14.43-3.71-28.75-7.73-43.32-10.9A554.86,554.86,0,0,0,604.1,9.18c-13.64-.47-27.29-.41-40.93-.95C551.3,7.76,539.44,7,527.58,6.47c-26.74-1.28-53.89-2.21-80.36,2.62C401.44,17.45,361.51,43,322.1,66.29c-12,7.11-24.28,13.85-36.12,21.25a438.42,438.42,0,0,0-40.55,28.9c-28.84,23-55,49.07-81.19,74.93-19.33,19.07-38.53,38.41-55.42,59.72a304.93,304.93,0,0,0-23.29,33.47,286.2,286.2,0,0,0-18,36.2c-10.52,25.3-17.88,51.76-25,78.17-3.59,13.26-7.15,26.54-10.84,39.78-4.82,17.32-9.77,34.62-14,52.11-6.38,26.62-11,53.66-11.37,81.1C6,602.21,10.12,632.36,16.23,662c5.88,28.46,13.49,56.59,20.9,84.69C45.21,777.32,53.82,808,66.8,837.05a373.56,373.56,0,0,0,20.63,38.7c8.63,14.45,17.77,28.61,27.48,42.35s19.92,27,30.8,39.8A404.51,404.51,0,0,0,177.81,992c20,18.65,42.7,34.2,65.89,48.64,7.81,4.86,15.71,9.56,23.61,14.27,17.36,10.34,34.73,20.74,52.73,30A555.5,555.5,0,0,0,412.52,1122c12.69,3.84,25.52,7.23,38.21,11.08,11.09,3.36,22.12,6.9,33.21,10.26,22.23,6.73,44.74,13,67.84,15.87,13.55,1.7,27.07,1.82,40.72,1.58a609,609,0,0,0,68.26-5c35.64-4.66,71.42-11.73,104.75-25.52,29.87-12.36,57.75-28.9,85.8-44.83,12.68-7.19,25.3-14.33,37.35-22.57a474.7,474.7,0,0,0,46.89-37.13c11.24-10,22.11-20.36,32.9-30.83,14.35-13.93,28.62-28,42.34-42.55,10.23-10.84,20.18-22,29.59-33.52a429.63,429.63,0,0,0,34.42-49c7.07-11.69,14-23.51,20.77-35.35,9.12-15.88,17.94-31.94,25.73-48.51a353,353,0,0,0,15.53-38.19A331.59,331.59,0,0,0,1150,690.84c5.2-35.27,5.74-70.93,6-106.51,0-.76-1.13.46-1.13.45C1154.38,585.26,1152.82,586.51,1152.82,587.28Z"/><path class="cls-1" d="M1151.76,591.14c.07,30.7-.47,61.45-4.08,92-2.85,24.08-7.52,47.86-15.51,70.87a353.24,353.24,0,0,1-15.8,37.63c-11.85,24.53-25.92,47.9-39.88,71.26-7.46,12.48-14.92,24.87-23.4,36.7a487.23,487.23,0,0,1-37.65,45.72c-20.19,22-41.69,42.79-63.39,63.26s-44.18,40.21-69,56.87c-12,8.08-24.64,15-37.28,22-12,6.69-23.89,13.55-36,20.09-26.25,14.23-53.25,27.21-82.19,34.94s-58.91,12.49-88.78,15.29q-25.49,2.38-51.11,2.62c-13.54.12-26.82-.22-40.23-2.12-22.85-3.24-45.06-9.84-67-16.76-11-3.47-21.95-7.1-33-10.51-18.06-5.59-36.38-10.23-54.3-16.28a534.25,534.25,0,0,1-90.33-40.16c-12.74-7.15-25.19-14.85-37.71-22.39-11.76-7.09-23.51-14.21-35-21.76-22.72-14.94-44.22-31.43-63.12-51-27-28-50.17-59.63-70.57-92.66C90.69,877.26,85,867.6,79.64,857.83A298.5,298.5,0,0,1,63,821.41c-9.73-25.27-16.66-51.52-23.34-77.72C24,682.41,6,619.7,10.88,555.78c2-26.9,8.13-53.28,15.18-79.26,3.52-13,7.34-25.88,11-38.81,3.78-13.18,7.37-26.41,11-39.63,7.2-26.27,14.62-52.6,25.34-77.7a272.31,272.31,0,0,1,18.27-35.66,318.34,318.34,0,0,1,32.23-42.92c14.81-16.9,30.92-32.62,47.06-48.24,22.42-21.71,44.55-43.79,68.53-63.81A469.37,469.37,0,0,1,279,100C291.6,91.47,304.82,84.17,318,76.68c25.68-14.55,50.55-30.58,77.38-43a259,259,0,0,1,35.1-13.52,184.07,184.07,0,0,1,34-6.7c22.67-2.3,45.53-1,68.21.42,11.76.71,23.51,1.53,35.27,2.06,13.66.61,27.33.48,41,1A537.39,537.39,0,0,1,722.93,33.52c12.83,3.28,25.5,7.09,38.35,10.3,11.46,2.88,23,5.51,34.45,8.37C821.78,58.7,848,66.13,871.67,79c13.09,7.1,25.62,15.48,38,23.8a620.25,620.25,0,0,1,54.16,40.78c12.73,10.79,25.35,22.1,36.7,34.36a225.75,225.75,0,0,1,27,36.41c14.1,23.15,25.31,47.91,37.83,71.91,5.94,11.39,12.33,22.49,18.65,33.67,9.86,17.44,19.48,35.05,28,53.19a417.87,417.87,0,0,1,17.11,41.58c6.84,19.82,11.6,40.25,15.3,60.87q4.39,24.42,6.57,49.16c2,22.47,2.43,44.9,2.29,67.44,0,.71.93-.52.86-.44a4.35,4.35,0,0,0,1-2.14c.06-17.06-.08-34-1.18-51.07q-1.61-25.07-5.36-49.94c-4.76-31.32-12-62.2-23.64-91.71-11.06-28-25.33-54.63-40.16-80.82-6.33-11.18-12.73-22.28-18.7-33.65-7.27-13.87-14.14-27.95-21.42-41.81-10.69-20.34-22.12-40.61-37-58.23-9.68-11.46-20.79-21.8-32-31.78-12.66-11.33-25.89-22-39.52-32.14s-27.66-19.68-42-28.77C883.12,82.61,872,75.75,860,70.23c-24.69-11.39-51.23-18-77.57-24.29-11.48-2.75-23-5.4-34.4-8.4-14.28-3.76-28.44-7.81-42.87-11A538.7,538.7,0,0,0,607,14c-13.66-.46-27.32-.32-41-.87-11.77-.48-23.52-1.21-35.27-1.84-26.43-1.41-53.24-2.7-79.47,1.73C401.38,21.48,358.82,50.9,315.8,75.54c-13.21,7.57-26.41,14.94-39,23.48a481,481,0,0,0-39.39,30c-12.71,10.67-24.93,21.9-36.92,33.38q-20.77,19.89-41.21,40.17c-19.13,18.91-37.94,38.31-54.07,59.89a272.86,272.86,0,0,0-21.84,33.93A308.23,308.23,0,0,0,66.81,333c-9.75,25.65-16.67,52.24-23.87,78.68C34.69,442,25.2,472,18.23,502.57a392.38,392.38,0,0,0-7.14,39.84,292.06,292.06,0,0,0-2,42.64c.77,30,5.71,59.75,12.23,89,3.23,14.48,6.91,28.86,10.55,43.24,3.4,13.36,6.72,26.75,10.23,40.08,8,30.37,16.87,60.79,30.65,89.12,6.83,14.06,14.88,27.57,23.09,40.86,8.82,14.25,18.14,28.19,28.07,41.7s20.33,26.46,31.43,38.91a339.9,339.9,0,0,0,30.84,30.83c20.68,17.92,43.67,32.89,67,47.14q17.58,10.75,35.32,21.26a562.93,562.93,0,0,0,58.37,30.41q22.76,10.13,46.37,18.09c14.32,4.83,28.87,8.7,43.36,13,22.18,6.52,44,14.25,66.23,20.57,22.39,6.36,45.11,11.21,68.44,12.06a503.13,503.13,0,0,0,51.37-1.23,600.07,600.07,0,0,0,67.21-8.23,422.25,422.25,0,0,0,45.56-10.36c17.66-5.25,34.65-12.47,51.18-20.54,12.46-6.08,24.63-12.73,36.74-19.48L847.24,1088q12.56-6.79,24.83-14.1c29.83-18.24,56.35-41.22,81.7-65.16s50.52-48.34,73.47-74.61c9.78-11.21,19.16-22.79,27.82-34.91,11.12-15.56,20.68-32.12,30.41-48.56,16.26-27.46,32.24-55.3,44-85,22.1-56,24.8-117.06,24.33-176.58,0-.64-.87.28-.87.28C1152.52,589.69,1151.76,590.53,1151.76,591.14Z"/><path class="cls-1" d="M1154.11,584.66c-.41,43.15-1.23,86.48-10.16,128.86a304.07,304.07,0,0,1-19.27,60.16,597.57,597.57,0,0,1-28.11,54.77q-6.79,11.88-13.79,23.62c-6,10.17-11.87,20.51-18.4,30.38a445,445,0,0,1-36.14,47.37c-13.1,15-26.87,29.32-41,43.36-17.71,17.64-35.6,35.26-54.4,51.75-15,13.13-30.43,25.75-46.93,36.94-15.8,10.71-32.65,19.7-49.24,29.1-16.07,9.1-32.18,18.12-48.71,26.35q-15.51,7.7-31.65,13.91a302.75,302.75,0,0,1-32.76,10.45c-10.61,2.77-21.48,4.87-32.25,6.91-11,2.09-22.15,3.7-33.27,5.16a584.65,584.65,0,0,1-76.77,4.72,245.39,245.39,0,0,1-26.14-1.22c-7.71-.83-15.33-2-22.94-3.59-19-3.81-37.49-9.36-55.93-15.16-14.68-4.62-29.31-9.37-44.12-13.57-23.37-6.64-46.58-13.69-69.07-22.94a537.5,537.5,0,0,1-59.45-28.47c-8.79-5-17.44-10.13-26.1-15.29-11.83-7-23.72-14-35.36-21.39-15.41-9.72-30.73-19.77-45-31.18-7.05-5.65-14-11.47-20.55-17.68-7.31-6.89-14.17-14.27-20.93-21.7a541,541,0,0,1-41.4-52.47c-6.44-9.15-12.52-18.58-18.47-28-8.33-13.27-16.25-26.86-23.29-40.87-8-16-14.17-33-19.73-50-6.38-19.48-11.46-39.39-16.53-59.23C25.37,692.86,13.69,650,9.61,605.83a314.29,314.29,0,0,1-.28-58.6,399.9,399.9,0,0,1,10.75-59.86c4.37-17.39,9.36-34.6,14.24-51.84,6.23-22.06,11.84-44.31,18.37-66.29,5.8-19.53,12.2-38.84,20.51-57.46,3.65-8.18,7.64-16.15,12.08-23.93a282.64,282.64,0,0,1,22.6-33.56c12.42-16,26.18-30.78,40.36-45.21,16.62-16.91,33.75-33.37,50.84-49.8q12-11.52,24.41-22.58a493,493,0,0,1,38.45-31.31c8.93-6.49,18-12.77,27.39-18.57,11.8-7.29,24.06-13.86,36-20.9,16.42-9.67,32.72-19.54,49.57-28.45,9.32-4.94,18.77-9.7,28.53-13.72l11.71-4.62a218,218,0,0,1,24-7.34l-.39.08L450.1,9.56l-.39.07L461.16,8l-.39.05,11.56-1-.39,0,11.67-.52h-.39L495,6.44h-.39c17.62.32,35.2,1.26,52.8,2.24,7.91.44,15.83.84,23.75,1.12,11.68.41,23.37.33,35.05.74A562.75,562.75,0,0,1,672.54,17C696,20.6,719.06,26.38,742,32.58c34,9.2,68.88,15.33,101.9,27.8,7.13,2.7,14.1,5.68,20.93,9.06a316.08,316.08,0,0,1,29.15,17,657.11,657.11,0,0,1,62.11,44.51q13.14,10.68,25.58,22.16c7.54,7,15,14.11,21.85,21.76,11.51,12.79,21.06,27.11,29.69,42,8.79,15.14,16.6,30.83,24.55,46.42,3.56,7,7.15,14,10.84,20.88,5.12,9.6,10.57,19,15.92,28.48,21,37.11,40.7,75.21,52.09,116.47a505,505,0,0,1,14,72c1.72,13.86,2.87,27.77,3.6,41.71.75,14.17.88,28.29.86,42.48a2,2,0,0,0,1-.93q1.56-2,3.05-4.1t2.92-4.19a2,2,0,0,0,.55-1.27c-.31-17.21-.83-34.34-2.32-51.5q-2.19-25.25-6.55-50.25c-2.87-16.37-6.39-32.71-10.84-48.73A383.5,383.5,0,0,0,1128,381c-11.55-28-26.11-54.56-41-80.91-6.32-11.2-12.71-22.35-18.84-33.66-7.56-14-14.88-28.08-22.72-41.9-11.62-20.45-24.28-40.62-40.3-58a402.28,402.28,0,0,0-33.32-31.44c-13.06-11.22-26.68-21.79-40.69-31.79S902.69,83.92,888,75c-11.5-7-23-13.57-35.35-18.9-25.23-10.87-52-17.4-78.71-23.65-11.6-2.73-23.22-5.4-34.81-8.17-14.61-3.5-29.13-7.33-43.85-10.34A601.84,601.84,0,0,0,595.78,2.43C582.09,2,568.41,2,554.72,1.58c-12-.35-24-.89-36-1.2-27.25-.7-54.83-.54-81.6,5.27-45.8,10-86.09,35.47-125.6,59.52-12.06,7.33-24.29,14.47-36.14,22.13a461.07,461.07,0,0,0-40.53,29.64c-28.78,23.4-55.1,49.7-81.12,76.08-19.33,19.59-38.35,39.61-54.95,61.61a317.21,317.21,0,0,0-22.85,34.52,306.94,306.94,0,0,0-17.6,36.94c-10.26,25.59-17.55,52.23-24.61,78.83Q28.39,425,23.07,445c-4.69,17.58-9.41,35.17-13.3,53C3.84,525.17-.09,552.72.09,580.61c.2,30.6,4.65,60.95,11.06,90.82,6.14,28.62,13.88,56.94,21.71,85.14,8.61,31,18,62,31.86,91.12a408.54,408.54,0,0,0,21.7,38.84Q99.83,908.28,114.88,929t31.87,39.76a401.59,401.59,0,0,0,33.11,34c20.61,18.46,43.67,33.94,67.25,48.32,7.92,4.83,15.92,9.52,23.94,14.17,17.66,10.26,35.46,20.44,53.77,29.51a603.69,603.69,0,0,0,93.54,36.5c12.76,3.86,25.63,7.27,38.43,11,11.27,3.29,22.5,6.7,33.81,9.86,22.81,6.37,46,12,69.65,14.2,13.78,1.26,27.68,1,41.49.5a608.32,608.32,0,0,0,69-6.27q25.2-3.75,50-9.64,14.94-3.36,29.49-8.16,13.28-4.47,26.12-10.07c29.93-13,58-29.72,86-46.34,12.7-7.53,25.33-15.07,37.39-23.61a503.34,503.34,0,0,0,46.85-38.11c11.22-10.16,22.09-20.71,32.84-31.37,14.35-14.21,28.55-28.6,42.16-43.53,10.16-11.14,20-22.57,29.33-34.44a461,461,0,0,0,34.06-50c7-11.88,13.8-23.93,20.44-36,9-16.25,17.51-32.75,25-49.74a336.83,336.83,0,0,0,27.07-96.91c4.79-35.4,4.82-71.1,6.13-106.73a2,2,0,0,0-1.2.7c-1.3,1.1-2.57,2.24-3.82,3.4s-2.51,2.32-3.72,3.52A2,2,0,0,0,1154.11,584.66Z"/><path class="cls-1" d="M1152.79,586.83c-.23,28.18-.63,56.35-3.43,84.41-1.24,12.42-2.79,24.88-5.21,37.13l-3.07,14.47a282,282,0,0,1-7.83,27.33l.12-.32L1128.53,763l.13-.32-5.37,12.93.14-.32L1117.6,788l.15-.31-6.21,12.54.16-.31c-12.78,24.25-26.52,48-40.76,71.39a413.43,413.43,0,0,1-25.26,37.1c-9,11.75-18.69,23.12-28.71,34-20.23,22-41.6,43-63.34,63.56-9.09,8.57-18.28,17-27.73,25.17q-8.42,7.41-17.22,14.33-11.67,9.27-24,17.67l.28-.19-12.81,8.31.28-.18c-18.17,10.65-36.55,21-55,31.21-8.08,4.48-16.21,8.85-24.44,13-10.31,5.24-20.75,10-31.36,14.55l.31-.12-13.16,5.07.32-.11c-8.75,2.9-17.36,5.7-26.29,8-10.59,2.69-21.45,5-32.19,6.91q-29.13,5.23-58.6,7.76-12.78,1.08-25.59,1.68c-11.3.52-22.9.79-34.24.46a257.36,257.36,0,0,1-46.1-5.89c-24.62-5.22-48.54-13.49-72.53-21-14.53-4.54-29.22-8.5-43.8-12.86l-16-5.12-46.15-17.85c-12.56-5.54-24.86-11.61-37-18.09-15.43-8.28-30.41-17.37-45.44-26.35-7.88-4.71-15.77-9.43-23.52-14.33l-22.35-15.49a249.17,249.17,0,0,1-32.83-24.09,375.59,375.59,0,0,1-36.46-37,558.94,558.94,0,0,1-40.65-53.08c-11-16.2-21.33-32.87-30.83-50a323.21,323.21,0,0,1-21.72-49.09c-5.29-14.92-9.73-30.13-13.88-45.4-5.54-20.38-10.72-40.87-15.83-61.35-4.21-16.87-8.22-33.78-11.48-50.86l-1.41-7.34L7.8,584.82a288.89,288.89,0,0,1,.52-29.13c.55-9,1.73-18.16,3.14-27.11s3.14-17.77,5.13-26.51c5-22,11.3-43.58,17.45-65.24,8.74-30.81,16.35-62,26.61-92.34,2.87-8.49,6.06-17,9.58-25.28L82.9,295.68a161.92,161.92,0,0,1,20.51-34.52c13.64-18.06,28.94-34.61,44.76-50.76,12.7-13,25.89-25.49,38.91-38.13,13.93-13.52,28-26.9,42.67-39.6a492.29,492.29,0,0,1,45.72-35.41c17.83-12.06,36.89-22.14,55.41-33.08C356.35,49.13,381.83,33.84,409.44,23l5.86-2.31a118.9,118.9,0,0,1,34.41-7.95l22.5-4,34.49-.29c17.59.37,35.18,1.89,52.75,2.77,21.26,1.06,42.59.6,63.83,2.13a557.9,557.9,0,0,1,65.53,8.48c10.66,2,21.34,4.39,31.84,7.1,9.07,2.33,18.07,4.9,27.11,7.31C764.9,40.82,782.23,44.6,799.41,49c16.83,4.29,33.81,9,49.89,15.67,5.26,2.19,10.43,4.52,15.53,7.07a315.42,315.42,0,0,1,29.08,17Q922.55,107,949.31,128c8.87,6.95,17.55,14.29,25.94,21.83l12.32,11.45A247.09,247.09,0,0,1,1007,181.58l-.21-.27,7.26,9.21-.2-.27,6.76,9.58-.18-.29,6.36,9.91-.17-.3c8,13.4,15.37,27,22.46,40.91,5.34,10.45,10.55,21,16,31.37,7.12,13.59,14.84,26.84,22.34,40.23,8.57,15.31,16.9,30.77,24.4,46.64q9.63,20.38,17.23,41.61c7,19.71,11.87,40.31,15.54,60.89,2.9,16.32,5.22,32.72,6.76,49.22,2.1,22.48,2.6,45,2.54,67.52a1.64,1.64,0,0,0,.92-.84c.89-1.23,1.75-2.47,2.58-3.74s1.67-2.54,2.46-3.83a1.63,1.63,0,0,0,.42-1.17c-.25-20-.94-39.84-2.84-59.74q-2.39-25.08-7-49.86a454.65,454.65,0,0,0-13.32-55.09A410,410,0,0,0,1117.6,364c-13.35-28.64-29.45-55.72-44.71-83.34-13.35-24.16-25.43-49-39.84-72.58a262.79,262.79,0,0,0-23.73-33.16c-3.8-4.48-7.79-8.73-11.94-12.9-7.93-8-16.28-15.74-24.8-23.06-13-11.17-26.46-21.84-40.36-31.88-7-5-14.06-9.86-21.22-14.61s-14.26-9.38-21.55-13.84l-14.39-8.71c-22-12.44-45.9-20.57-70.26-27.06-11.45-3-23-5.78-34.51-8.48Q746,28.65,721.75,22.57A572.76,572.76,0,0,0,615.44,6c-15.29-.91-30.59-1.09-45.9-1.35-15.94-.28-31.86-1.21-47.8-1.74C500.43,2.2,479,2,457.81,4.54c-5.94.72-11,1.37-17.08,2.68a238,238,0,0,0-41.19,13C373.9,30.85,350,45,326.29,59.29c-13.29,8-26.58,15.95-39.82,24A460.23,460.23,0,0,0,238.77,117c-15.2,12.13-29.56,25.34-43.62,38.76q-19,18.13-37.48,36.81c-16.08,16.16-32.15,32.48-46.57,50.16a353.36,353.36,0,0,0-27.85,38.75c-11.92,19.44-21,40.27-28.54,61.8-9.85,28.3-17,57.42-24.82,86.33-7,26.11-14.57,52.15-19.94,78.68A376.94,376.94,0,0,0,3.24,556a315.25,315.25,0,0,0-.47,36.63c1,22.82,4.3,45.47,8.77,67.84,6.2,31,14.52,61.55,22.76,92,7.18,26.55,15,52.94,25.46,78.43a337.49,337.49,0,0,0,22.41,44c10.07,17,20.74,33.73,32.37,49.72,9.95,13.68,20.35,27,31.44,39.82,13.29,15.32,27.35,30.22,43.06,43.12a486.3,486.3,0,0,0,50.78,36c11.71,7.33,23.6,14.36,35.55,21.29,13.17,7.64,26.36,15.27,39.87,22.31a555.84,555.84,0,0,0,68.54,30.06c26.84,9.68,54.48,16.83,81.79,25,24.29,7.3,48.61,14.66,73.64,19a241.92,241.92,0,0,0,41.45,3.65q30.27,0,60.43-3a597.72,597.72,0,0,0,67.32-10.51c12.78-2.75,25.47-5.81,37.94-9.76a320.74,320.74,0,0,0,38.79-15.58c16.85-7.91,33.16-17,49.31-26.2,22.9-13.11,46-26,67.39-41.61,30.5-22.26,57.73-48.55,84.38-75.19s52.49-54.07,74.43-84.71q8.8-12.3,16.68-25.17c4.9-8,9.58-16.13,14.27-24.27,9.2-16,18.22-32,26.47-48.53A424.23,424.23,0,0,0,1137.55,756a330.26,330.26,0,0,0,14.75-55.74,486.29,486.29,0,0,0,6-52.75c1.5-22.9,1.66-45.86,2.47-68.79a1.59,1.59,0,0,0-1,.64q-1.65,1.54-3.23,3.16t-3.11,3.28A1.6,1.6,0,0,0,1152.79,586.83Z"/><path class="cls-1" d="M1152.1,586.94c.8,59.11-2.15,120.08-24.2,175.63-10.05,25.32-23.23,49.25-36.94,72.73q-10.28,17.6-20.84,35a419,419,0,0,1-34.53,48.52c-17.33,21-36.42,40.48-55.85,59.53-19.58,19.19-39.27,38.37-60.3,56a430.68,430.68,0,0,1-35.54,27c-12,8.1-24.61,15.06-37.25,22.12-28,15.66-55.79,32.09-85.62,44.21A291.09,291.09,0,0,1,722,1140.42c-16,4-32.28,7-48.58,9.52q-25.11,3.81-50.48,5.51l-17,.9q-17.07.68-34.16.37c-7.8-.32-15.49-.87-23.24-1.94a304.64,304.64,0,0,1-33.84-6.9c-26.06-6.7-51.38-15.9-77.18-23.48-14.45-4.24-29-8.13-43.26-12.93q-23.58-7.93-46.35-18-22.53-10-44.08-22c-12.76-7.15-25.25-14.82-37.79-22.36-23.44-14.1-46.82-28.48-68.27-45.52-23.64-18.77-44-41.16-62.58-64.88-10.31-13.17-20-26.81-29.16-40.8s-18-28.33-25.94-43c-12.84-23.7-22-48.93-29.62-74.74C42.55,753.44,36,726.39,29.31,699.45c-8.44-33.8-16-68-18.42-102.79a307.92,307.92,0,0,1,3.17-71.19c4.33-26.54,11.68-52.45,19.08-78.25,3.74-13,7.47-26.08,11-39.16,3.65-13.32,7.19-26.67,11.1-39.92,8.91-30.17,19.58-60,36.07-87,14.06-23,31.77-43.49,50.43-62.84,15.7-16.28,32.15-31.85,48.38-47.59C214,147.65,238.24,125,265,105.44a435.54,435.54,0,0,1,41.79-26.83c14.55-8.29,29-16.73,43.48-25.15,21.85-12.72,44.12-25.06,68-33.65a195.28,195.28,0,0,1,34.92-9.3,230.74,230.74,0,0,1,33.42-2.68c19.25-.32,38.48,1.08,57.68,2.27,11.84.73,23.69,1.46,35.55,1.78q14.52.22,29,.55,16.8.57,33.54,2.25,24.54,2.45,48.77,7.19Q707.2,25,723,29q13.56,3.62,27.06,7.38c26.52,7.08,53.54,12.32,79.71,20.7a264,264,0,0,1,32,12.35c16.91,8,32.61,18.48,48.06,28.9,28,18.91,54.89,39.84,79.19,63.4l11.76,11.81a351,351,0,0,1,43.77,66.66c7.15,13.85,13.93,27.89,21.13,41.72,5.94,11.39,12.34,22.48,18.66,33.66,9.86,17.45,19.48,35.05,28,53.19a421.17,421.17,0,0,1,17.12,41.57c6.83,19.8,11.6,40.23,15.31,60.83q4.4,24.39,6.59,49.12c2,22.44,2.46,44.86,2.33,67.38,0,.63.85-.27.84-.27a3.46,3.46,0,0,0,1-1.78c0-17-.15-33.95-1.27-50.9-1.1-16.64-2.88-33.26-5.41-49.74-2.49-16.23-5.64-32.45-9.69-48.36a363.29,363.29,0,0,0-16.84-50c-11.59-27.81-26.05-54.24-41-80.36-6.11-10.68-12-21.44-17.68-32.37-6.29-12.18-12.39-24.45-18.74-36.59a408.24,408.24,0,0,0-23.25-39.9c-3.22-4.76-6.61-9.33-10.17-13.84a247.72,247.72,0,0,0-23.18-25c-24.54-23.57-51.64-44.51-79.92-63.39-7-4.68-14.14-9.2-21.29-13.66-5.57-3.47-11.17-7-17-10.07a241.82,241.82,0,0,0-37-15.5C810.89,48.51,787.87,43.41,765,37.85c-12.25-3-24.4-6.27-36.58-9.51a564.12,564.12,0,0,0-56-12c-16.4-2.62-33-4.49-49.53-5.56-15.29-1-30.59-1-45.9-1.37-25.57-.66-51.07-3-76.66-3.47a299.18,299.18,0,0,0-39.93,1.53A192.6,192.6,0,0,0,426,14.7c-26.34,8.1-50.87,21.17-74.62,34.94-11,6.37-21.83,12.92-32.79,19.3-12.66,7.38-25.46,14.48-37.74,22.48-30.22,19.69-57.42,43.39-83.42,68.29-10.6,10.14-21.06,20.44-31.53,30.71-9.73,9.53-19.42,19.11-28.8,29-20.23,21.32-39.12,44.08-53.6,69.75C70.11,312.83,60.78,338.4,53,364.37c-4,13.22-7.6,26.55-11.19,39.88-4.14,15.37-8.44,30.7-12.74,46C21.12,478.51,13.49,506.89,9.62,536a295.15,295.15,0,0,0-2.56,42.12A386.47,386.47,0,0,0,11.41,631c4.41,29.52,11.75,58.5,19.18,87.38S45.18,776,54.84,804.17a369.7,369.7,0,0,0,15,37.49c6.47,13.75,14.17,26.85,22.1,39.8,19,31,40.34,60.57,64.76,87.51a337.08,337.08,0,0,0,31.16,30.6,388.69,388.69,0,0,0,32.61,24.65c11.35,7.77,23,15,34.8,22.16q21.23,12.84,42.77,25.19a543.1,543.1,0,0,0,98,43.82c14.28,4.74,28.79,8.65,43.22,12.85,12.93,3.75,25.75,7.87,38.62,11.84,22.13,6.83,44.45,13.28,67.4,16.74,5.74.87,11.52,1.64,17.31,2,6.81.48,13.66.47,20.48.45q29.94-.08,59.79-3.06,29.29-3,58.21-8.88c17-3.46,33.92-7.48,50.27-13.41,30.36-11,58.6-27,86.6-42.92,14.4-8.18,29-16.07,42.88-25.12a428.13,428.13,0,0,0,41.76-31.29c13.36-11.27,26.15-23.2,38.74-35.31S986.53,975,998.74,962.5c26-26.61,50.64-54.74,70.3-86.43,8.49-13.71,16.66-27.64,24.72-41.6,8-13.8,15.68-27.76,22.74-42.06a366,366,0,0,0,18.62-44,315.38,315.38,0,0,0,12.11-49.21,492.76,492.76,0,0,0,5.79-52.56c.46-7.68.75-15.38,1-23.07q.29-7.72.36-15.46.36-11.3-.29-22.59C1154,584.77,1152.09,586.38,1152.1,586.94Z"/><path class="cls-1" d="M1153.76,584.09c-.45,40.66-1.06,81.52-8.68,121.6a307.88,307.88,0,0,1-15.6,54.75,447.12,447.12,0,0,1-23.37,49.45c-8.66,16.05-18,31.73-27.31,47.4q-7.2,12.4-14.92,24.49-8.19,12.51-17.32,24.36c-24.25,31.6-52.73,59.7-81.32,87.31s-58.37,54.76-92.45,75.74c-12,7.37-24.47,14-36.71,20.92-16.07,9.08-32.15,18.18-48.72,26.31s-33.51,15.37-51.15,20.69c-20.22,6.09-41.22,10.06-62.06,13.27a608.69,608.69,0,0,1-67.78,6.55c-19.21.77-38.54,1.1-57.64-1.48-30.69-4.14-60.16-14.2-89.57-23.49q-11-3.51-22-6.78-13.67-3.87-27.31-7.83a549.37,549.37,0,0,1-62.47-23.15,559.94,559.94,0,0,1-58.48-30.31q-17.75-10.5-35.4-21.21c-15.61-9.52-31.08-19.33-45.81-30.18a326.08,326.08,0,0,1-41-35.46c-31-32-57.18-68.71-79.74-107q-7.81-13-14.57-26.49-5.86-12-10.71-24.55A535.08,535.08,0,0,1,45,767.59c-4.93-17.68-9.34-35.51-13.87-53.29-4.89-19.2-9.78-38.41-13.72-57.84a465.51,465.51,0,0,1-8.5-59.35q-1.11-15.18-.85-30.4.28-13.77,1.93-27.44l-.05.4,1.92-13.84-.06.4,2.43-13.69-.08.39L17,499.37l-.09.39c4.17-17.57,8.82-35,13.75-52.33s9.83-35,14.62-52.6,9.71-35.3,15.65-52.62Q65.29,329.42,70.5,317T82,292.74l-.18.34,6.82-12-.19.33q7-11.55,15.13-22.4t16.86-20.92c8.86-10.17,18.1-20,27.57-29.58,9.63-9.76,19.5-19.29,29.32-28.86,15.19-14.81,30.45-29.48,46.16-43.74l-.27.23L236,125.1l-.27.23,13.07-10.68-.28.23c13.14-10,26.34-20,40.49-28.6,10.12-6.15,20.5-11.85,30.72-17.82,20.15-11.77,40.11-23.76,60.74-34.67l-.3.16,11.68-5.75-.31.16c9.63-4.31,19.18-8.42,29.18-11.79A193.27,193.27,0,0,1,449.7,9c18.54-3.2,37.6-3.53,56.36-2.95,17.6.55,35.17,1.77,52.76,2.62,6.06.3,12.12.57,18.19.73l12,.18q16.9,0,33.75,1.44,12.48.44,24.86,2,12.3,1.26,24.51,3.28,16.14,2.67,32.12,6.13c18.41,4,36.47,9.42,54.75,14,19.09,4.76,38.34,8.91,57.26,14.33,16.49,4.72,32.77,10.38,48.16,18a303.61,303.61,0,0,1,29.15,16.94,681.19,681.19,0,0,1,62.11,44.49c10.94,8.88,21.59,18.11,31.77,27.86a253.53,253.53,0,0,1,23.08,24.75c13.21,16.61,23.64,35,33.51,53.76,9.14,17.35,17.77,35,27.1,52.21,5.44,10.05,11.24,19.89,16.83,29.86,6.12,10.94,12.15,21.95,17.8,33.14s10.93,22.54,15.75,34.11a338.15,338.15,0,0,1,12.83,35.35,496.5,496.5,0,0,1,14.86,71.09q2.86,20.67,4.29,41.5c1.12,17,1.3,33.9,1.28,50.89a1.4,1.4,0,0,0,.91-.67q1.36-1.56,2.64-3.18c.86-1.07,1.7-2.17,2.5-3.28a1.36,1.36,0,0,0,.45-1c-.25-17.15-.72-34.27-2.15-51.37a575.45,575.45,0,0,0-7.89-58.33,482.27,482.27,0,0,0-11.28-47.77,397.3,397.3,0,0,0-18.62-49.82c-13.16-29.32-29.34-57.11-45.1-85.08-12.58-22.34-23.84-45.4-36.81-67.52-9.84-16.78-20.65-33.28-33.78-47.71-10.19-11.21-21.49-21.5-32.93-31.42a579.13,579.13,0,0,0-47.5-36.82c-14-9.81-28.4-19.06-43.06-27.87A229.16,229.16,0,0,0,853.94,58a364.38,364.38,0,0,0-49.77-16.67c-24.8-6.59-49.91-11.94-74.8-18.15-16-4-32-7.85-48.27-10.75C664.67,9.5,648,7.2,631.39,5.83q-16.86-1.38-33.76-2c-13.68-.48-27.37-.44-41-.88C529,2.07,501.43.12,473.89,1.8a240.48,240.48,0,0,0-34.24,4.35,229.34,229.34,0,0,0-41.3,13.13c-17.86,7.43-34.92,16.55-51.65,26.25C333.86,53,321.21,60.74,308.51,68.41S283.2,83.41,271,91.6a505.58,505.58,0,0,0-52.93,41.22c-23.21,20.47-45.11,42.4-66.84,64.41-19.26,19.5-38,39.56-54.25,61.67A296,296,0,0,0,71.35,300C57.9,326.45,48.83,354.9,40.88,383.41c-4.36,15.64-8.41,31.36-12.62,47-3.52,13.12-7.15,26.21-10.54,39.36s-6.64,26.53-9.28,39.93c-3.56,18-6.33,36.47-7,54.85-1,30.23,2,60.37,7.57,90.06,6.34,33.67,15.46,66.83,24.53,99.85,7.31,26.62,15.31,53,25.9,78.57a341.35,341.35,0,0,0,22.69,44c10.15,17,21,33.68,32.63,49.72,10,13.72,20.58,27,31.68,39.79a371.46,371.46,0,0,0,38.15,38.57c22.72,19.57,48,35.73,73.7,51.06,28.63,17.08,57.68,33.67,88.18,47.19q22.94,10.17,46.69,18.26c18.78,6.41,37.85,11.65,56.89,17.18,22.54,6.55,44.94,13.65,67.82,19a314.45,314.45,0,0,0,40.77,7c16.59,1.61,33.4,1,50,.28,20.14-.91,40.2-2.85,60.17-5.67,11.22-1.58,22.44-3.6,33.55-5.88,10.85-2.22,21.76-4.63,32.44-7.59,33.77-9.37,65.11-25.34,95.43-42.62q21.06-12,41.86-24.46a418.91,418.91,0,0,0,43.58-30c29.64-23.37,56.62-50.09,83-77.06s51.4-55.21,72.19-86.7c9.22-14,17.5-28.52,25.76-43.07,9.11-16.05,18.1-32.24,26-48.93a414.24,414.24,0,0,0,18.48-44.94,332.41,332.41,0,0,0,12.4-49.25,515,515,0,0,0,6.47-60.45c1.1-20.34,1.27-40.73,1.94-61.09a1.46,1.46,0,0,0-1,.47c-1.11.83-2.21,1.69-3.28,2.57s-2.14,1.77-3.18,2.7A1.37,1.37,0,0,0,1153.76,584.09Z"/><path class="cls-1" d="M1153,588.32c-.15,20.57-.33,41.14-1.57,61.68q-.88,15.18-2.6,30.28-1.68,14.87-4.45,29.57l.07-.35-3.14,14.81.08-.35-3.69,14.21q-3.79,13.17-8.82,25.92c-5,12.71-10.74,25.07-16.94,37.22s-12.9,24.06-19.74,35.88-13.68,23.56-20.79,35.16c-5.23,8.55-10.57,17-16.38,25.14-8.6,12.11-17.91,23.7-27.65,34.91-22.82,26.3-47.9,50.71-73.15,74.65-18.07,17.12-36.69,33.78-56.75,48.56a388.2,388.2,0,0,1-37.59,24.32c-11.85,6.78-23.77,13.45-35.67,20.12-20.13,11.28-40.51,22.08-61.82,31a281,281,0,0,1-39.1,12.93A545.42,545.42,0,0,1,658,1156q-25.37,3.21-51,4.29c-13.36.56-26.76.83-40.12.19-21.31-1-42.16-5.53-62.67-11.21-22.29-6.17-44.13-13.8-66.32-20.28-9.08-2.66-18.21-5.12-27.28-7.83a534.64,534.64,0,0,1-62.48-23.06q-22.61-10-44.22-22c-12.82-7.12-25.36-14.77-37.94-22.29-19.63-11.74-39.2-23.69-57.66-37.23a332.53,332.53,0,0,1-31.41-25.88A404.34,404.34,0,0,1,145,956.52c-21.62-25.68-40.53-53.43-57.7-82.24A352.87,352.87,0,0,1,67,835.62a400.56,400.56,0,0,1-14.13-37.77c-8.48-26.18-15-53-21.77-79.62-6.12-24-12.29-48.09-16.54-72.54C8.58,611,5.93,577.63,9.93,543.3,13.06,516.37,19.77,490,27,463.93c6.09-21.86,12.33-43.67,18.31-65.56,7.19-26.34,14.6-52.73,25.26-77.92a277.19,277.19,0,0,1,18.18-35.9c4.69-7.73,9.86-15.14,15.21-22.42,18.69-25.4,41.48-47.64,64-69.57,20.42-19.9,40.68-40,62.27-58.62,10.44-9,21.1-17.71,32.22-25.87a444.56,444.56,0,0,1,41.83-27c10.88-6.23,21.76-12.46,32.57-18.83,11-6.46,21.91-13,33.1-19,22.13-12,45.32-22.77,69.95-28.49C462,9.64,484.79,9.22,507.34,10c19.58.64,39.12,2.27,58.69,3.13,13.67.6,27.34.5,41,1q25.1.9,50,4.13,24.36,3.18,48.37,8.58c14.45,3.24,28.66,7.3,43,11.13C775,45,802,50.21,828.22,58.57a268.47,268.47,0,0,1,32.14,12.32c11.93,5.57,23,12.55,34.14,19.59,33.33,21.14,65.15,45.14,93.58,72.56,9.55,9.21,18.52,18.63,26.43,29.28a301,301,0,0,1,18.57,28.79c13.68,23.57,24.84,48.52,37.87,72.44,6.66,12.24,13.77,24.23,20.5,36.43,8.47,15.37,16.55,30.92,23.82,46.9,5.19,11.39,10,22.93,14.11,34.76,6.89,19.81,11.73,40.23,15.51,60.85q4.47,24.4,6.75,49.17c2.09,22.46,2.59,44.91,2.53,67.46a1.86,1.86,0,0,0,.91-1q1.31-2.08,2.51-4.23t2.38-4.31a1.89,1.89,0,0,0,.39-1.28c-.21-17.14-.63-34.25-2-51.35-1.36-16.77-3.42-33.53-6.23-50.13a491.87,491.87,0,0,0-12.67-56A393.73,393.73,0,0,0,1120.92,371c-12.32-27.54-27.36-53.71-42.16-80-13.56-24.06-25.67-48.91-39.57-72.77-5.89-10.12-12.12-20.1-19-29.58a224.47,224.47,0,0,0-22.74-26.61,489.45,489.45,0,0,0-37.92-34.06,610.33,610.33,0,0,0-55.66-40.24q-10.71-6.87-21.61-13.46c-5.69-3.45-11.4-6.83-17.35-9.82a255.61,255.61,0,0,0-32-13.22c-24.21-8.27-49.3-13.68-74.16-19.57Q750,29.7,741.36,27.59c-9.21-2.24-18.39-4.74-27.62-6.9-16-3.73-32.21-7-48.51-9.38-16.51-2.46-33.16-4.15-49.83-5.14-17.28-1-34.58-1-51.87-1.52-25.7-.71-51.4-2.55-77.12-1.89A281.44,281.44,0,0,0,452,5.51a211.27,211.27,0,0,0-40.53,10.42c-24.09,8.67-46.63,20.88-68.64,33.85C330,57.31,317.34,65,304.62,72.7c-6,3.64-12.06,7.27-18.07,10.94-9.54,5.82-18.79,12-27.83,18.58-27,19.64-51.55,42.22-75.43,65.5Q168,182.6,153,197.81c-12.83,13-25.42,26.16-37.25,40.06-17.72,20.84-33.41,43.26-45.3,67.94C57.61,332.56,48.94,361,41.06,389.51c-4.3,15.57-8.32,31.22-12.55,46.81C25,449.39,21.38,462.45,18,475.57c-5,19.72-9.52,39.62-12.26,59.8-4,29.14-3.57,58.55,0,87.72,4,32.28,11.73,64,19.92,95.39,7.57,29,15,58.23,24.73,86.64a401.73,401.73,0,0,0,15,38,394.78,394.78,0,0,0,21.2,38.79c20.46,33.7,43.79,65.76,70.54,94.76a338.21,338.21,0,0,0,31.75,30.57,408.34,408.34,0,0,0,33,24.6c11.46,7.74,23.25,15,35.11,22.1,16.66,10,33.44,19.88,50.52,29.14a562,562,0,0,0,91.71,39.42c14.33,4.72,28.86,8.71,43.35,12.87,13.05,3.75,26,7.82,39,11.69,24.39,7.25,49.2,14,74.58,16.73,13.66,1.45,27.47,1.36,41.19,1,20.14-.53,40.25-2.11,60.23-4.63a592.18,592.18,0,0,0,66.47-12.23,307.66,307.66,0,0,0,47.5-15.71c29.92-12.71,58-29.39,86-45.71,6.15-3.58,12.29-7.16,18.37-10.86,8.63-5.24,17-10.83,25.14-16.77a530.83,530.83,0,0,0,46.38-38.41c13-11.93,25.61-24.25,38.1-36.7s24.75-25,36.58-38.08,23.13-26.37,33.6-40.44c11.77-15.82,22.07-32.54,31.95-49.59,16.19-27.9,32.24-56.07,44.53-86A324.69,324.69,0,0,0,1145.87,730a355,355,0,0,0,7.61-36.78,531.37,531.37,0,0,0,5.39-53c1.11-20.4,1.24-40.85,2-61.26a1.76,1.76,0,0,0-1,.79c-1.07,1.19-2.12,2.4-3.14,3.65s-2,2.47-3,3.75A1.79,1.79,0,0,0,1153,588.32Z"/><path class="cls-1" d="M1151.24,585.05c.36,30.58-.32,61.26-3.87,91.66-3.09,26.48-8.5,52.55-17.77,77.58-8.68,23.44-20.07,45.67-32.35,67.4-6.7,11.86-13.69,23.54-20.66,35.24q-7.2,12.36-14.89,24.41-6.08,9.39-12.86,18.29c-16.22,21.86-34.53,42-53.6,61.39-10.49,10.67-21.21,21.12-32,31.51s-21.62,20.75-32.89,30.62C911.68,1039.51,892.21,1055,871,1068c-12,7.34-24.4,13.92-36.62,20.81-14,7.92-28.08,15.81-42.46,23.1-22.58,11.46-45.82,21.13-70.42,27.3-16,4-32.34,7.08-48.66,9.57-16.74,2.56-33.64,4.49-50.55,5.56-11.38.71-22.77,1.22-34.17,1.35-13.57.15-26.92-.13-40.37-2-26.75-3.67-52.61-11.89-78.26-20.06-7.41-2.36-14.82-4.76-22.25-7.05-12.71-3.92-25.57-7.28-38.28-11.16a543.65,543.65,0,0,1-77.09-30c-14.85-7.14-29.25-15-43.44-23.41-19.71-11.63-39.47-23.3-58.61-35.85-11.41-7.48-22.6-15.3-33.29-23.78a335.09,335.09,0,0,1-41.31-39.39,558.68,558.68,0,0,1-50.57-66.35c-9.18-14-18-28.34-26-43.05A315.88,315.88,0,0,1,61.83,817.2c-8.16-21-14.35-42.76-20.1-64.54-3.51-13.33-6.84-26.72-10.23-40.08-4.86-19.2-9.74-38.39-13.66-57.81-4.95-24.52-8.51-49.42-9.16-74.46a292.45,292.45,0,0,1,2-42.67,389.85,389.85,0,0,1,7.15-39.85c5-21.82,11.39-43.27,17.53-64.77,8.78-30.76,16.24-62,26.67-92.24,7.3-21.16,16.14-41.87,27.84-61,14.07-23,31.8-43.53,50.48-62.9,15.72-16.3,32.18-31.87,48.43-47.62,27.76-26.92,56.25-53.17,88.42-74.81,12.67-8.52,25.92-15.84,39.15-23.4,7.28-4.16,14.5-8.42,21.73-12.67,21.85-12.84,43.79-25.77,67.25-35.51,18.34-7.62,37.65-13.18,57.43-15.24,7.45-.78,14.94-1.08,22.43-1.25,27.25-.61,54.48,2.39,81.67,3.62,13.65.62,27.3.51,40.95,1,16.7.6,33.42,2,50,4.17,27.13,3.58,53.31,9.56,79.84,16.72C752.79,36,768,39.81,783.3,43.51c22.61,5.48,45.4,11.09,67,20C871,72.09,890,84.31,908.51,96.82a554.23,554.23,0,0,1,79.35,63.5,281.2,281.2,0,0,1,50.13,68.1c11.06,20.55,20.88,41.74,32,62.25,6.65,12.23,13.77,24.2,20.49,36.39,9.65,17.51,19,35.28,26.88,53.68,3.92,9.19,7.66,18.45,10.94,27.89,6.84,19.77,11.63,40.16,15.36,60.73q4.43,24.38,6.65,49.07c2.05,22.43,2.52,44.83,2.43,67.33,0,.67.91-.26.93-.28.41-.38,1.39-1.31,1.39-1.93,0-16.95-.27-33.88-1.44-50.79a577.24,577.24,0,0,0-6.94-57.73,481.18,481.18,0,0,0-10.42-47.33,370,370,0,0,0-17.78-49.5c-12.86-29.36-29-57-44.65-84.92-12.38-22.15-23.2-45.11-35.33-67.39a317.84,317.84,0,0,0-24.31-38.75c-13-17.39-29.07-32.2-45.42-46.38A602.73,602.73,0,0,0,915,99.35c-11.55-7.92-23.24-15.67-35.28-22.83-6.57-3.9-13.21-7.55-20.14-10.78C838.41,55.93,815.78,49.6,793.24,44c-11.5-2.84-23-5.49-34.54-8.35-12.91-3.22-25.68-7-38.58-10.22A544.88,544.88,0,0,0,622.39,9.88c-15.3-1-30.61-1-45.92-1.37-13.83-.36-27.65-1.22-41.46-2-24.9-1.44-50.08-2.94-74.95-.14-20.27,2.28-39.79,8.05-58.59,16C378,32.2,355.91,45.23,334,58.19c-10.87,6.42-21.81,12.73-32.76,19a448.76,448.76,0,0,0-55.17,37.33c-25.38,20.09-48.55,42.71-71.69,65.29-22.77,22.23-45.83,44.41-65.74,69.31a306.35,306.35,0,0,0-23.55,33.56,289.6,289.6,0,0,0-20.65,42.61c-11,27.74-18.5,56.63-26.29,85.38-7.71,28.43-16.33,56.64-23,85.35-3.07,13.32-5.65,26.73-7.43,40.29a318.33,318.33,0,0,0-2.41,50,384.82,384.82,0,0,0,5.57,52.78c2.46,14.8,5.56,29.46,9,44.06,3.39,14.33,7.08,28.58,10.77,42.82,4.62,17.85,9.22,35.71,14.44,53.4,7.7,26.06,16.79,51.85,29.71,75.82,9.07,16.82,19.09,33.29,29.78,49.13,11,16.31,22.66,32.15,35.2,47.32a447.62,447.62,0,0,0,32.76,35.94,320.19,320.19,0,0,0,31.2,26.46c25.74,19.29,53.64,35.51,81.41,51.68,13.92,8.11,28,15.93,42.44,23A549.43,549.43,0,0,0,381,1111.58c5.22,1.9,10.82,3.84,16.08,5.58,16.12,5.33,32.53,9.68,48.8,14.49,24,7.12,47.85,15.15,72.27,20.92a303,303,0,0,0,34.36,6.28c5.86.69,11.73,1.08,17.63,1.26,13.42.4,26.93.17,40.32-.56,19.91-1.09,39.73-3,59.45-6A532,532,0,0,0,727,1142.2c33.59-8.86,64.7-24.4,94.85-41.35q20.91-11.74,41.66-23.83a407.92,407.92,0,0,0,49.29-33.81c27.28-21.85,52.31-46.57,76.91-71.35,26.22-26.41,51.44-54,72.25-84.94,9.24-13.76,17.5-28.15,25.83-42.47,9.15-15.74,18.16-31.59,26.31-47.88a400.31,400.31,0,0,0,19-43.82,312.08,312.08,0,0,0,13-48.35,482.24,482.24,0,0,0,6.86-59.92c1.18-20.31,1.47-40.64,1.11-61C1153.92,582.73,1151.24,584.46,1151.24,585.05Z"/><path class="cls-1" d="M1154,586.15c-.27,30.7-.66,61.45-4.18,92-3.32,28.84-9.43,57.2-20,84.3-9.92,25.49-23,49.61-36.66,73.25-6.82,11.8-13.72,23.58-20.79,35.23a426.71,426.71,0,0,1-34.47,48.79c-18.9,23.09-39.88,44.36-61.17,65.22s-43,41.84-66.54,60.46a386.4,386.4,0,0,1-36.53,25.84c-12,7.4-24.42,14-36.65,21-28,15.9-56.29,31.84-86.71,42.79A328.87,328.87,0,0,1,708,1146.69q-24.56,5.3-49.51,8.45-25.41,3.24-51,4.33c-15.29.65-30.76,1.09-46-.08-23.18-1.78-45.84-7.53-68.06-14.1-11.12-3.28-22.15-6.85-33.21-10.31q-11-3.49-22.05-6.76-13.67-3.84-27.3-7.81a549.31,549.31,0,0,1-92.25-37.29c-13.86-7.15-27.25-15.08-40.65-23-7.9-4.69-15.81-9.36-23.66-14.14-23.36-14.21-46.43-29.14-67.23-47A337.5,337.5,0,0,1,156,968.2a546,546,0,0,1-41.48-52.46q-14.44-20.67-27.23-42.43A364.18,364.18,0,0,1,67,834.62c-10.9-24.83-18.56-50.94-25.54-77.09-3.56-13.36-6.92-26.77-10.34-40.16-3.67-14.39-7.36-28.78-10.61-43.28C12.79,639.82,7.2,604.81,7.92,569.59,9,515,27.29,462.82,41.5,410.66c7.22-26.48,14.14-53.11,23.87-78.81a310.87,310.87,0,0,1,16.51-36.79A288.88,288.88,0,0,1,112,250.29c17-21.07,36.3-40.17,55.66-59.06,22.39-21.85,44.56-44,68.53-64.11a484.73,484.73,0,0,1,39.46-30c12.66-8.56,25.9-16,39.14-23.58,22-12.63,43.45-26.22,66.07-37.74,22-11.2,45.2-20.71,69.66-24.87,22.45-3.81,45.38-3.39,68-2.35,11.76.54,23.51,1.34,35.26,2,11.93.63,23.83,1,35.78,1.2,16.95.3,33.82.92,50.7,2.57A542.58,542.58,0,0,1,705.16,24.7c14.47,3.21,28.67,7.3,43,11.07,15.25,4,30.65,7.43,46,11.24,26.13,6.5,52.38,13.92,76.25,26.68,13.18,7,25.78,15.4,38.19,23.71A623.8,623.8,0,0,1,963,138.09a426.92,426.92,0,0,1,37,34.32,229.3,229.3,0,0,1,27.48,36.35c14.36,23.12,25.79,47.89,38.42,71.95,6,11.38,12.36,22.49,18.68,33.67,9.87,17.46,19.52,35.07,28.1,53.21a427.62,427.62,0,0,1,17.26,41.6c6.93,19.83,11.8,40.27,15.62,60.9q4.52,24.45,6.82,49.22c2.13,22.49,2.66,45,2.63,67.54a2.39,2.39,0,0,0,1-1.1c1-1.56,2.08-3.13,3.08-4.73s2-3.19,2.94-4.81a2.34,2.34,0,0,0,.55-1.43c-.31-17.21-.82-34.34-2.31-51.49Q1158.1,498,1153.75,473c-2.87-16.37-6.39-32.71-10.84-48.73a379.07,379.07,0,0,0-15-43.33c-11.54-28-26.1-54.56-41-80.91-6.32-11.2-12.72-22.35-18.84-33.67-7.57-14-14.88-28.08-22.72-41.9-11.61-20.45-24.26-40.64-40.28-58a399.29,399.29,0,0,0-33.32-31.46c-13.06-11.22-26.68-21.79-40.69-31.79S902.69,83.88,888,74.92c-11.5-7-23-13.59-35.34-18.93C827.44,45.11,800.61,38.59,774,32.33c-11.6-2.72-23.22-5.4-34.81-8.17-14.62-3.49-29.15-7.32-43.88-10.34A603,603,0,0,0,595.74,2.34c-13.68-.48-27.36-.45-41-.85-12-.35-24-.89-36-1.2C491.42-.41,463.82-.25,437,5.56,391.23,15.5,350.92,41,311.4,65.08c-12.06,7.35-24.3,14.51-36.16,22.18a460.93,460.93,0,0,0-40.55,29.65c-28.76,23.4-55.09,49.69-81.1,76.07-19.34,19.6-38.36,39.63-54.95,61.65a316,316,0,0,0-22.86,34.53,305.63,305.63,0,0,0-17.59,37C47.92,351.7,40.63,378.35,33.57,405Q28.24,425,22.94,445.06c-4.69,17.59-9.41,35.18-13.29,53C3.73,525.24-.18,552.8,0,580.7c.21,30.6,4.65,61,11.07,90.82C17.23,700.15,25,728.46,32.8,756.66c8.61,31,18,62,31.9,91.13a407.75,407.75,0,0,0,21.72,38.84c8.94,14.49,18.41,28.67,28.47,42.42s20.65,27,31.89,39.75a399.86,399.86,0,0,0,33.11,34c20.62,18.46,43.68,33.93,67.26,48.31,7.92,4.83,15.92,9.51,23.94,14.16,17.67,10.26,35.46,20.43,53.77,29.5a605.16,605.16,0,0,0,93.55,36.49c12.76,3.85,25.64,7.27,38.44,11,11.27,3.28,22.51,6.69,33.82,9.84,22.81,6.37,46,12,69.65,14.18,13.77,1.25,27.65,1,41.45.5a610.68,610.68,0,0,0,69-6.28q25.2-3.75,50-9.66,15-3.36,29.5-8.17,13.26-4.47,26.1-10.07c29.93-13,58-29.73,86-46.34,12.7-7.53,25.32-15.07,37.37-23.61a503.23,503.23,0,0,0,46.85-38.1c11.21-10.17,22.08-20.71,32.83-31.37,14.35-14.21,28.55-28.6,42.16-43.52,10.16-11.15,20-22.57,29.32-34.44a458.61,458.61,0,0,0,34-50c7-11.88,13.8-23.92,20.45-36,8.94-16.26,17.51-32.75,25-49.74a336.49,336.49,0,0,0,27.07-96.87c4.79-35.45,4.79-71.19,6.13-106.86a2.3,2.3,0,0,0-1.23.88q-2,2-3.86,4t-3.75,4.16A2.31,2.31,0,0,0,1154,586.15Z"/><path class="cls-1" d="M1152.3,585.47c0,15.4-.11,30.79-.71,46.18-1,25-2.86,50.44-7.78,75-1.93,9.64-4,19.23-6.77,28.69A313.77,313.77,0,0,1,1123,773.83c-9.12,20.86-20.13,40.84-31.55,60.51q-10.32,17.79-21,35.4a419.33,419.33,0,0,1-64.17,81.94l-10.37,10.7c-10.48,10.71-21.24,21.16-32,31.56s-21.65,20.78-32.93,30.66c-7.49,6.56-15.07,13-22.89,19.19l-11.85,9a377.4,377.4,0,0,1-49.47,30.84c-19.93,11.4-40,22.88-60.58,33a366.73,366.73,0,0,1-38,16.32q-96.63,30.83-199.92,22.57l-11.43-1.83c-26.68-4.65-52.51-13.58-78.26-21.7-7.32-2.31-14.64-4.62-22-6.78-14.47-4.24-29-8.13-43.31-13q-19.71-6.63-38.81-14.78c-31.17-13.22-60.61-30.21-89.62-47.62-11.79-7.08-23.56-14.2-35.07-21.74-22.64-14.83-44.19-31.47-63.18-50.78a454.17,454.17,0,0,1-32.7-37.69c-10.34-13.15-20.15-26.78-29.28-40.8-14-21.52-27.6-43.56-37.88-67.14-9-20.6-15.73-42.13-21.75-63.75-3.68-13.23-7-26.55-10.43-39.86-3.57-14-7.23-28.08-10.61-42.18-7-29-13.08-58.57-15-88.43C8.2,587.41,7.79,577.26,8,567.12a301.22,301.22,0,0,1,3.83-40.88c3.54-22.14,9.21-43.9,15.24-65.47,3.61-12.93,7.4-25.81,11-38.74,3.72-13.35,7.23-26.75,11-40.1,7.31-26.07,15.2-52.34,27.05-76.78,3.9-8,8-15.94,12.69-23.59a301.87,301.87,0,0,1,23.45-33c14.16-17.47,29.91-33.58,45.9-49.35,9.7-9.57,19.51-19,29.28-28.52,11.94-11.6,23.93-23.14,36.4-34.17s25.13-21.48,38.45-31.25a431.32,431.32,0,0,1,41.77-26.95c7.23-4.12,14.47-8.19,21.66-12.4,10.94-6.41,21.8-13,32.83-19.23,18.32-10.4,37.13-20.22,57-27.43a198.73,198.73,0,0,1,34.94-9.46A233.23,233.23,0,0,1,483.93,7c21.25-.47,42.5,1.12,63.7,2.35,9.88.57,19.78,1.11,29.68,1.37,15.33.41,30.64.38,46,1.4a539.16,539.16,0,0,1,81.46,11.79c14.45,3.22,28.65,7.31,43,11.09,11.42,3,22.93,5.69,34.42,8.46,22.7,5.48,45.32,11.27,67.06,19.9a214.94,214.94,0,0,1,30.38,15.22,619.05,619.05,0,0,1,56,37.68c9,6.82,18,13.8,26.64,21.09s17,14.74,25.08,22.53a248.44,248.44,0,0,1,19.44,20.31c14.75,17.57,26.09,37.77,36.69,58,10.87,20.77,21,41.87,32.54,62.32,14.75,26.21,29.7,52.27,41.73,79.88a375.41,375.41,0,0,1,15.66,42.24,457.92,457.92,0,0,1,10.88,46.54c3.07,16.26,5.23,32.72,6.77,49.19,2.1,22.47,2.6,44.93,2.54,67.48,0,1,1.63-1.21,1.52-1.08.73-.89,1.43-1.8,2.11-2.72a5.91,5.91,0,0,0,1-1.52c-.17-19.89-.76-39.66-2.55-59.49q-2.25-25-6.66-49.65a454.81,454.81,0,0,0-13-54.89,418.17,418.17,0,0,0-22.45-56c-13.39-27.94-29.52-54.37-44.21-81.62-13-24.13-24.89-48.91-39.38-72.21a245.51,245.51,0,0,0-23.7-32.7c-4.42-5-9.22-9.72-14-14.39q-9.07-8.85-18.54-17.26a550.5,550.5,0,0,0-47-37q-10.46-7.44-21.15-14.5C894.65,83.55,883.45,76.45,872,70.1c-22-12.18-46.15-19.84-70.44-26.16-13.38-3.48-26.86-6.55-40.3-9.77-15-3.58-29.8-7.62-44.72-11.33A555.76,555.76,0,0,0,601.57,7.07c-13.64-.48-27.3-.44-40.94-1C544.8,5.53,529,4.52,513.15,4c-24.9-.8-50-.54-74.46,4.87-30.93,6.85-59.66,21.28-86.93,37-11,6.37-21.94,13-32.9,19.49C304.42,74,289.74,82.2,275.71,91.47c-32.53,21.47-61.48,47.53-89.37,74.63-21.63,21-43.33,42.07-63.49,64.52A374.16,374.16,0,0,0,93.22,268a280.67,280.67,0,0,0-26.39,47.57c-11.87,27.28-19.94,56-27.66,84.63-4.18,15.49-8.34,31-12.62,46.43-4.23,15.25-8.38,30.53-12,45.93C6.94,524.4,2.31,557.06,3.84,589.83c1.65,35.3,8.27,69.94,16.67,104.2,4,16.39,8.36,32.71,12.67,49,3.53,13.38,7.16,26.73,11.15,40C48.93,798.29,54,813.44,60,828.2c2.58,6.28,5.38,12.46,8.34,18.58C73.78,858,80,868.84,86.45,879.48c19.07,31.31,40.31,61.19,64.69,88.6a366.26,366.26,0,0,0,32.1,32.4c7,6.09,14.15,11.84,21.57,17.36,24,17.87,49.88,33.11,75.75,48.1,11.16,6.47,22.33,12.89,33.75,18.87q22.13,11.6,45.21,21.12c15.49,6.4,31.23,12,47.21,17.08,15.36,4.84,30.92,9,46.35,13.6,18.65,5.57,37.19,11.53,56.05,16.36,15,3.84,30.33,7.23,45.76,8.81a312.09,312.09,0,0,0,41.37,1.07,629.83,629.83,0,0,0,118.14-14.69c9.86-2.2,19.69-4.68,29.32-7.76a340,340,0,0,0,45.1-18.49c16.69-8.12,32.88-17.18,49-26.44,14.27-8.23,28.76-16.22,42.67-25.06,33.9-21.54,63.58-49,92.15-77,23.19-22.74,46.06-45.88,66.73-71q9.57-11.61,18.38-23.79c4.4-6.09,8.68-12.27,12.74-18.6,6.39-10,12.26-20.33,18.21-30.58,14.9-25.7,29.52-51.7,41-79.16a322.29,322.29,0,0,0,17.12-53.56c2.19-9.8,3.93-19.74,5.33-29.68,5-35.28,5.24-70.93,6-106.48,0-.25-3.22,2.2-3.14,2.13C1154.43,583.21,1152.3,584.54,1152.3,585.47Z"/><path class="cls-1" d="M1151.43,585.12c.45,30.64-.32,61.43-3.91,91.89-3.39,28.69-9.59,56.87-20.25,83.77-10,25.26-23.14,49.14-36.8,72.58-6.83,11.73-13.74,23.45-20.81,35a418.11,418.11,0,0,1-34.46,48.52c-18.89,23-39.87,44.07-61.12,64.81s-43,41.67-66.47,60.19a379.17,379.17,0,0,1-36.48,25.67c-8.08,5-16.43,9.45-24.71,14.08-28,15.66-55.78,32.12-85.61,44.26a289.25,289.25,0,0,1-39,12.78c-16,4-32.29,7.06-48.59,9.55q-25.11,3.84-50.5,5.54a512.38,512.38,0,0,1-51.24,1.29c-46.75-1.53-90.32-19.35-134.64-32.36-14.39-4.22-28.83-8.09-43.05-12.88q-23.58-7.93-46.37-18c-15-6.66-29.8-14-44.1-22-8.76-5-17.39-10.15-26-15.31-23.53-14.09-47.21-28.06-69.3-44.35a327.39,327.39,0,0,1-31.28-25.93c-15.29-14.52-29.16-30.66-42.16-47.25-10.32-13.16-20-26.82-29.19-40.81s-18-28.34-25.95-43c-12.85-23.7-22-48.94-29.65-74.75-7.85-26.65-14.37-53.71-21.1-80.66-8.43-33.8-16-68-18.43-102.8a308.54,308.54,0,0,1,3.17-71.2c4.32-26.54,11.68-52.45,19.08-78.26,3.74-13.05,7.48-26.09,11.06-39.17,3.65-13.32,7.19-26.67,11.1-39.92,8.91-30.18,19.59-60.05,36.08-87,14.08-23,31.82-43.5,50.5-62.85,9.4-9.74,19.11-19.19,28.84-28.61,10.51-10.2,21-20.45,31.57-30.56,23.94-22.83,48.93-44.69,76.44-63.18,9.22-6.2,18.68-11.82,28.31-17.33q10.94-6,21.69-12.31l21.82-12.82C378.69,34.88,408.71,18.33,441.59,11c22.1-5,44.78-5.27,67.31-4.42,19.64.74,39.24,2.43,58.87,3.32,13.68.61,27.36.49,41,1A529.07,529.07,0,0,1,706.87,23.7c14.4,3.25,28.53,7.39,42.79,11.2,15.28,4.09,30.73,7.51,46.08,11.35,26.06,6.53,51.9,14.16,75.71,26.8l9.72,5.67q14.33,8.76,28.25,18.14a622.22,622.22,0,0,1,54.15,40.79c12.73,10.78,25.35,22.09,36.69,34.36a228.26,228.26,0,0,1,27,36.37c14.13,23.2,25.38,48,37.92,72,5.95,11.39,12.34,22.49,18.67,33.67,9.86,17.44,19.47,35,28,53.18a416,416,0,0,1,17.09,41.56c6.83,19.79,11.58,40.2,15.29,60.79q4.38,24.38,6.57,49.09c2,22.44,2.44,44.85,2.32,67.36,0,.69,1.78-.77,1.78-1.33,0-17-.14-33.89-1.25-50.83-1.08-16.61-2.85-33.21-5.36-49.66-2.47-16.2-5.6-32.38-9.63-48.27a362.58,362.58,0,0,0-16.74-49.92c-11.55-27.8-26-54.23-40.91-80.33-6.1-10.68-12-21.44-17.68-32.37-4.49-8.69-8.87-17.44-13.32-26.15-10.44-20.44-21.19-41-34.9-59.45a239.81,239.81,0,0,0-26.39-29.33,532.62,532.62,0,0,0-45-38.54q-20.22-15.57-41.61-29.5c-13.35-8.74-26.82-17.51-41.3-24.28-19.32-9-39.94-15.09-60.57-20.35-11.46-2.93-23-5.62-34.49-8.41-12.11-3-24.12-6.26-36.16-9.49A552.16,552.16,0,0,0,640.5,11.35c-11.18-1.1-22.42-1.85-33.65-2.24-7.71-.27-15.45-.29-23.16-.41-9.87-.16-19.75-.59-29.61-1.12C528.75,6.23,503.41,4.07,478,5.08A213.45,213.45,0,0,0,444.29,8.9a197.46,197.46,0,0,0-23.92,6.51c-22.2,7.47-43.09,18.15-63.41,29.71C345.89,51.41,335,58,324,64.43c-12.08,7.08-24.43,13.71-36.33,21.07-30.67,19-58.38,42.38-84.54,67.11-11.05,10.44-21.89,21.09-32.78,31.7-9.8,9.54-19.57,19.12-29.1,28.94-20.54,21.15-40.11,43.63-55.34,69C72,305.56,62.08,331.08,54,357c-8.91,28.45-16,57.44-24.14,86.12-8,28.28-16,56.69-20.42,85.79A305.62,305.62,0,0,0,5.9,570.27a364.4,364.4,0,0,0,3.49,53.22c4,29.7,11,58.83,18.4,87.83s14.59,58.31,24,86.81a404.18,404.18,0,0,0,14.52,37.93,377.51,377.51,0,0,0,20.73,38.78c18.71,31.29,39.87,61.17,64,88.52a328.82,328.82,0,0,0,64,57.6c24.45,17.14,50.35,32.21,76.2,47.11,14.32,8.24,28.85,16.1,43.8,23.15s30.32,13.44,45.88,19.11c15.87,5.79,32,10.62,48.26,15.32,16.53,4.8,33,9.76,49.45,14.77,22.2,6.76,44.6,13.08,67.6,16.39,5.76.83,11.56,1.57,17.37,1.94,6.81.43,13.68.36,20.5.32,20-.13,39.94-1.19,59.8-3.28q29.28-3.09,58.17-9.11c17-3.53,33.86-7.63,50.19-13.63,32.44-11.92,62.47-29.42,92.36-46.55,14.55-8.34,29.22-16.47,43-26a455.05,455.05,0,0,0,41-32.19c13.19-11.49,25.88-23.5,38.41-35.7s24.9-24.46,37-37.07c24-25.07,46.5-51.62,64.79-81.19,8.47-13.69,16.58-27.62,24.6-41.59C1101.38,819,1109,805.13,1116,790.9a369.06,369.06,0,0,0,18.43-43.77,316.78,316.78,0,0,0,12-49,492,492,0,0,0,5.81-52.5c.46-7.68.75-15.38,1-23.07q.27-7.74.37-15.5.39-11.49-.3-23C1153.28,583.35,1151.42,584.62,1151.43,585.12Z"/><path class="cls-1" d="M1153,587.29c-.44,50.36-1.35,101.55-15.39,150.31-12.65,43.92-36.22,83.57-59.39,122.58-4.88,8.21-9.74,16.43-14.9,24.47a374,374,0,0,1-26.51,36c-14.23,17.19-29.47,33.48-45.2,49.31-17.62,17.72-35.52,35.22-54.05,52-9.24,8.36-18.65,16.52-28.42,24.25l-11.83,9.06q-12,8.88-24.68,16.74l.32-.19-13.25,7.77.33-.18c-18.07,10.11-36,20.52-54.21,30.31q-12.23,6.55-24.71,12.54-6.2,3.06-12.59,5.71-9.43,4.24-19.18,7.71l.35-.12-13.38,4.46.34-.11q-14.43,4.28-29.18,7.33-16.29,3.51-32.75,6.08c-16.75,2.62-33.68,4.53-50.6,5.73-19,1.35-38.18,2.1-57.22,1.2a245.1,245.1,0,0,1-40.25-5.53c-26.54-5.74-52.2-14.73-78.13-22.62-12.73-3.88-25.59-7.27-38.32-11.13q-16.05-4.86-31.78-10.66-15.56-5.73-30.71-12.41l.31.14-15.29-7,.31.15L318,1083.62l.3.15-14.82-7.93.3.16-14.6-8.4.29.17c-15.87-9.43-31.83-18.74-47.48-28.54q-11.65-7.26-23-15t-22-16.12l.26.21-10.76-8.83.26.22-10.34-9.26.24.23c-7.18-7.09-14.23-14.1-21-21.67q-8.33-9.35-16.23-19c-12.37-15.17-23.86-31-34.71-47.26-31.3-47-47-84.24-60.22-131.31-2.47-8.81-4.8-17.67-7.09-26.53-4.77-18.5-9.61-37-14.08-55.59-8.21-34.1-14.59-68.58-15.87-103.7-1.36-37,5.72-73.46,15.25-109,4.06-15.16,8.45-30.23,12.7-45.33,4.37-15.51,8.44-31.09,12.79-46.6s8.89-30.67,14.28-45.7C69.3,320,77.37,301.22,88,284.07c16.62-26.91,37.56-50.67,59.8-73,11.2-11.28,22.65-22.31,34-33.41,15.54-15.15,31.16-30.2,47.59-44.39a520.28,520.28,0,0,1,45.73-35.44c16-11,33.27-20.06,50-29.91,27.33-16.07,54.45-32.79,84.05-44.43a205.68,205.68,0,0,1,40.89-11.81,242.79,242.79,0,0,1,39.3-3c31.33-.18,62.55,3.31,93.87,3.81,18.93.31,37.83.82,56.69,2.68a537.88,537.88,0,0,1,56.87,8.78q16,3.33,31.75,7.56c6.42,1.72,12.82,3.5,19.23,5.21,15.24,4.07,30.65,7.48,46,11.26,28,6.92,56,15.11,81.14,29.57,16.25,9.36,32,19.74,47.27,30.56a609.35,609.35,0,0,1,53.22,42.23l12.33,11.46,11.82,11.8a208.28,208.28,0,0,1,18,22.13,366,366,0,0,1,23.69,39.39c7.33,13.78,14.23,27.79,21.38,41.66,9.09,17.63,19.19,34.65,28.72,52,9.64,17.58,18.94,35.36,27,53.75a386.12,386.12,0,0,1,19.66,56.84c2.74,10.51,4.93,21.3,6.9,32,2.49,13.56,4.4,27.22,5.88,40.93q1.35,12.47,2.22,25c1.18,16.93,1.27,33.86,1.24,50.82a2.28,2.28,0,0,0,1-1.07c1-1.51,2.05-3,3-4.58s2-3.1,2.89-4.67a2.23,2.23,0,0,0,.53-1.39c-.26-17.18-.81-34.29-2.17-51.42a551.35,551.35,0,0,0-7.93-58.4,480.32,480.32,0,0,0-11.32-47.84A407.16,407.16,0,0,0,1118.26,362c-13.39-28.63-29.5-55.76-44.81-83.38-13.41-24.21-25.52-49.18-40.21-72.66A288.72,288.72,0,0,0,1013,177.25c-10.28-12.66-22.28-23.86-34.42-34.7-29.9-26.68-62.77-49.65-97.09-70.26-5.73-3.44-11.47-6.81-17.46-9.78-5.18-2.58-10.5-4.88-15.85-7a352,352,0,0,0-38.74-13c-26.74-7.41-54-13-80.9-19.67-16-4-32-7.8-48.32-10.68A561.65,561.65,0,0,0,622.42,5c-16.09-1.16-32.21-1.69-48.35-1.87s-32-.92-48-1.47c-11.85-.4-23.71-.67-35.57-.48-13.5.21-27.15.88-40.48,3.06a224.47,224.47,0,0,0-34.67,8.46,309.69,309.69,0,0,0-46.82,20.5C346,45.24,324.27,58.78,302.42,72c-8.43,5.11-17,10.1-25.29,15.42-7,4.53-13.9,9.35-20.66,14.29a559.14,559.14,0,0,0-45.16,37c-14.11,12.75-27.74,26-41.19,39.47-9.75,9.73-19.49,19.47-29,29.4-22.21,23.1-43.27,47.42-59.91,74.91-15.39,25.4-26.07,53.12-34.73,81.45-4.73,15.45-8.86,31.08-13,46.7S25.15,441.58,21,457.05C13.41,485.72,6.34,514.6,3.1,544.14c-3.8,34.53-1.34,69.25,4.63,103.39,5.53,31.67,13.84,62.78,22.18,93.8s17,62,29.44,91.68c1.78,4.24,3.73,8.61,5.66,12.78a341.69,341.69,0,0,0,17.15,31.52,649.63,649.63,0,0,0,37.6,56.37q7.62,10.2,15.64,20.07c5.85,7.21,10.55,12.49,16.47,19.06,5.62,6.23,11.3,12.46,17.27,18.36a343.32,343.32,0,0,0,42.53,35.35c24.47,17.43,50.62,32.48,76.71,47.31,9.23,5.24,18.47,10.42,27.9,15.3q22.26,11.52,45.47,21c15.55,6.35,31.35,12,47.38,17,15.4,4.83,31,9,46.47,13.55,22.42,6.62,44.81,13.79,67.69,18.67a317.13,317.13,0,0,0,35,5.77c8,.78,16,1,24,1,17.46,0,34.91-.89,52.3-2.34,17-1.42,34-3.7,50.8-6.63,16.6-2.89,33.27-6.32,49.52-10.85,29.26-8.15,56.75-21.19,83.29-35.8,14.22-7.82,28.22-16,42.21-24.27,6.14-3.61,12.27-7.24,18.35-11q16.13-9.91,31.2-21.38c30.07-22.88,57.1-49.57,83.61-76.38s52.07-54.7,73.41-85.83c9.61-14,18.08-28.72,26.53-43.45,9.19-16,18.17-32.18,26.39-48.74a450.63,450.63,0,0,0,19.35-44.63,322,322,0,0,0,14.63-55.9,501.16,501.16,0,0,0,6.46-60.49c1-20.42,1.25-40.87,2-61.29a2.2,2.2,0,0,0-1.2.86c-1.27,1.29-2.52,2.6-3.73,4s-2.44,2.68-3.62,4A2.25,2.25,0,0,0,1153,587.29Z"/></g></g></g></svg>